<?xml version="1.0" standalone="no"?>
<!DOCTYPE svg PUBLIC "-//W3C//DTD SVG 20010904//EN"
 "http://www.w3.org/TR/2001/REC-SVG-20010904/DTD/svg10.dtd">
<svg version="1.0" xmlns="http://www.w3.org/2000/svg"
 width="1134.000000pt" height="1134.000000pt" viewBox="0 0 1134.000000 1134.000000"
 preserveAspectRatio="xMidYMid meet">
<metadata>
Created by potrace 1.14, written by Peter Selinger 2001-2017
</metadata>
<g transform="translate(0.000000,1134.000000) scale(0.100000,-0.100000)"
fill="#000000" stroke="none">
<path d="M2137 11333 c-7 -15 -2 -10101 5 -10109 10 -9 849 -11 855 -1 2 4 9
4 15 1 16 -10 939 -11 945 -1 2 4 9 4 15 1 16 -10 939 -11 945 -1 2 4 9 4 15
1 16 -10 939 -11 945 -1 2 4 9 4 15 1 16 -10 939 -11 945 -1 2 4 9 4 15 1 16
-10 939 -11 945 -1 2 4 9 4 15 1 16 -10 939 -11 945 -1 2 4 9 4 15 0 9 -5 345
-8 431 -4 16 1 17 249 17 5061 l0 5060 -3539 0 c-1947 0 -3541 -3 -3544 -7z"/>
</g>
</svg>
