<?xml version="1.0" encoding="UTF-8"?>
<svg xmlns="http://www.w3.org/2000/svg" xmlns:xlink="http://www.w3.org/1999/xlink" viewBox="0 0 344.39 256.5">
  <defs>
    <style>
      .cls-1 {
        opacity: .7;
      }

      .cls-1, .cls-2, .cls-3 {
        mix-blend-mode: screen;
      }

      .cls-4 {
        fill: url(#linear-gradient);
      }

      .cls-4, .cls-5, .cls-6, .cls-7, .cls-8 {
        stroke-width: 0px;
      }

      .cls-9 {
        isolation: isolate;
      }

      .cls-10 {
        opacity: .58;
      }

      .cls-2 {
        opacity: .49;
      }

      .cls-6 {
        fill: #fff;
      }

      .cls-3 {
        opacity: .51;
      }

      .cls-7 {
        fill: url(#linear-gradient-2);
      }

      .cls-8 {
        fill: #231f20;
      }

      .cls-11 {
        fill: none;
        stroke: #717171;
        stroke-miterlimit: 1;
        stroke-width: .58px;
      }
    </style>
    <linearGradient id="linear-gradient" x1="172.59" y1="251.37" x2="172.59" y2="7.6" gradientUnits="userSpaceOnUse">
      <stop offset="0" stop-color="#0e0e0e"/>
      <stop offset=".5" stop-color="#000"/>
      <stop offset=".52" stop-color="#010101"/>
      <stop offset=".73" stop-color="#0b0b0b"/>
      <stop offset="1" stop-color="#0e0e0e"/>
    </linearGradient>
    <linearGradient id="linear-gradient-2" x1="172.59" y1="7.6" x2="172.59" y2="251.37" gradientUnits="userSpaceOnUse">
      <stop offset="0" stop-color="#fff" stop-opacity=".77"/>
      <stop offset=".2" stop-color="#fff" stop-opacity=".65"/>
      <stop offset=".34" stop-color="#fff" stop-opacity=".65"/>
      <stop offset=".35" stop-color="#fff" stop-opacity=".65"/>
      <stop offset=".37" stop-color="#fff" stop-opacity=".62"/>
      <stop offset=".4" stop-color="#fff" stop-opacity=".53"/>
      <stop offset=".43" stop-color="#fff" stop-opacity=".39"/>
      <stop offset=".47" stop-color="#fff" stop-opacity=".2"/>
      <stop offset=".51" stop-color="#fff" stop-opacity="0"/>
      <stop offset=".59" stop-color="#7d7d7d" stop-opacity=".09"/>
      <stop offset="1" stop-color="#1b1b1b" stop-opacity=".16"/>
    </linearGradient>
  </defs>
  <g class="cls-9">
    <g id="Layer_1" data-name="Layer 1">
      <g>
        <path class="cls-6" d="M285.18,7.6H60.01c0,29.21-23.9,53.12-53.12,53.12v137.53c29.21,0,53.12,23.9,53.12,53.12h225.17c0-29.21,23.9-53.12,53.12-53.12V60.72c-29.21,0-53.12-23.9-53.12-53.12Z"/>
        <g class="cls-3">
          <path class="cls-4" d="M285.18,7.6H60.01c0,29.21-23.9,53.12-53.12,53.12v137.53c29.21,0,53.12,23.9,53.12,53.12h225.17c0-29.21,23.9-53.12,53.12-53.12V60.72c-29.21,0-53.12-23.9-53.12-53.12Z"/>
        </g>
        <g class="cls-1">
          <path class="cls-7" d="M285.18,7.6H60.01c0,29.21-23.9,53.12-53.12,53.12v137.53c29.21,0,53.12,23.9,53.12,53.12h225.17c0-29.21,23.9-53.12,53.12-53.12V60.72c-29.21,0-53.12-23.9-53.12-53.12Z"/>
        </g>
        <g class="cls-2">
          <g>
            <path class="cls-8" d="M60.35,247.75c-.55.42-.24,1.38,1.29,1.19l1.09-1.63-2.38.43Z"/>
            <path class="cls-8" d="M70.65,250.76c1.8-.79,3.88-2.17,2.71-3.67-1.78,1.56-2.21.91-4.13,2.77-1.53.19-2.67-.52-2.42-1.12-.54.42-2.38-.36-3.2.66,1.99,1.26,4.52,1.31,7.16.27.57.36.02.78-.11,1.08Z"/>
            <path class="cls-8" d="M220.36,253.3l-.96-.19c.26.11.59.17.96.19Z"/>
            <path class="cls-8" d="M295.1,225.74c-.31.59-.32.9-.21,1,.23-.57.41-1.06.21-1Z"/>
            <path class="cls-8" d="M305.7,215.57c-.26.17-.47.33-.7.49.34-.11.64-.26.7-.49Z"/>
            <path class="cls-8" d="M220.36,253.3l2.48.51c.17-.53-1.27-.39-2.48-.51Z"/>
            <path class="cls-8" d="M91.3,246.84c-.52.08-.95.23-1.35.43.43-.07.84-.13,1.26-.17.02-.09.04-.16.08-.26Z"/>
            <path class="cls-8" d="M179.47,254.62h-.75c-.22.19-.43.41-.63.66l1.38-.66Z"/>
            <path class="cls-8" d="M148.09,254.87c.71.06.96-1.32,1.23-1.92-.4.57-.93.84-1.55.95-.01.26.08.58.32.98Z"/>
            <path class="cls-8" d="M98.33,252.44l-.88.19c.23-.06.62-.11.88-.19Z"/>
            <path class="cls-8" d="M201.93,254.92c.05.2.17.39.29.49,0-.17-.11-.34-.29-.49Z"/>
            <path class="cls-8" d="M53.21,213.35c-.09.04-.12.11-.19.16.23.07.35.06.19-.16Z"/>
            <path class="cls-8" d="M60,251.02l-.1-.5c-.26-.05-.52-.1-.78-.09l.88.59Z"/>
            <path class="cls-8" d="M329.18,205.56c-.05,0-.07,0-.12,0-.63.25-.26.17.12,0Z"/>
            <path class="cls-8" d="M249.01,2.24c3.01,1.23-4.91,1.58-.37,2.96-.42-.54,4.12-2.15.37-2.96Z"/>
            <path class="cls-8" d="M92.11,247.02c.42-.02.85-.03,1.29-.01-.59-.05-.98-.04-1.29.01Z"/>
            <path class="cls-8" d="M248.65,5.19h0s.47.14.47.14c-.19-.06-.3-.09-.47-.14Z"/>
            <path class="cls-8" d="M343.86,141.28c-.24.14-.43.4-.6.68.14-.02.31-.18.6-.68Z"/>
            <path class="cls-8" d="M341.89,191.25l.05-.46.02-.23.02-.15.09-.62c-.06.24-.11.47-.13.67-.03.2-.04.55-.05.79Z"/>
            <path class="cls-8" d="M341.91,115.45c.11-.67.3-.9.11-1.81-.07.08-.12.17-.17.28.19.33.28.77.06,1.53Z"/>
            <path class="cls-8" d="M341.9,88.56c-.11.14-.18.33-.28.5.02.27.05.58.07.85l.2-1.35Z"/>
            <path class="cls-8" d="M13.06,163.07c-.39.59-.82.96-1.24,1.24.98-.41,1.33,3.54,1.24-1.24Z"/>
            <path class="cls-8" d="M91.31,247.62c.16-.35.39-.52.8-.6-.31.02-.61.04-.89.07-.08.21-.1.4.1.52Z"/>
            <path class="cls-8" d="M331.01,114.36l.2-4.27c-.13,1.19-.2,2.75-.2,4.27Z"/>
            <path class="cls-8" d="M67.98,13.57l-.25.04c-.1.01-.07.03-.11.04l-.13.08c.11.03.12,0,.48-.17Z"/>
            <path class="cls-8" d="M331.01,97.41c.49-.76.77-1.57.95-2.41-.11-.18-.2-.38-.36-.5l-.6,2.9Z"/>
            <path class="cls-8" d="M11.8,164.32s.01,0,.01,0c0,0,0,0-.01,0Z"/>
            <path class="cls-8" d="M15.08,190.6s-.02,0-.07-.01c-.03,0-.06,0-.09,0h-.06c-.02-.06-.04-.11-.06-.15-.18-.38-.44-.52-.73-.56-.58-.08-1.29.25-1.81-.18-.52-4.86,1.34-2.25,2.27-3.9-.48-3.03-2.15-5.36-2.08-7.62.3-.17.41-.61.78-.09-1.44-3.21-.07-9.52-1.88-13.26.16-.28.31-.42.45-.49-.91.61-1.83.7-2.49.57-.03-1.82-1.15-3.39.04-4.07-.03,1.12.44,1.21.81,1.73l-.51-1.91c1.7-1.72.59,2.61,1.85,2.61-.55-3.73-1.97-8.07-1.48-10.93,1.67-.6.56,6.68,2.05,2.87l-.64,4.42c2.63-3.38-.18,2.69,2.63-.42.48-5.82-.85-6.51-.36-12.31-.93-1.31-1.37.43-2.3-.87-1.67-8.25,4.2-6.49,1.97-12.56-1.11-1.57-3.22-2.18-2.11-6.5l1.89,1.47c.19-5.63-2.71-3.21-1.44-9.11.74,1.05.63,4.43.85,3.57,1.49-3.82-1.07-2.7-1.07-5.64l1.67-.61c-.26-6-1.47-12.6-1.77-19.24.5.37,1.02,1.51,1.53-.05-.83-8.38.2-17.88,1.2-25.96-.48-1-.96-2.12-1.44-3.03.02-.26.65-.3.93-.1.27-.26.04-.3-.32-.38-.37-.07-.88-.03-1.16-.39-.04-.26.06-.41.21-.43.26-.1.69.17.98.45.03.01.05.04.08.06,0-.01-.01-.02-.02-.04-.23-.34-.46-.82-.68-1.43.1-.31.51-.47.97-.68.2-.09.43-.14.67-.25l.17-.07s0-.02.11-.05l.99-.23c.66-.14,1.32-.28,1.98-.41.66-.13,1.31-.23,1.94-.41,2.52-.67,4.95-1.01,6.96-1.34l-1.04.84c2.46-.61,3.56-1.75,4.52-2.88.96-1.18,1.85-2.22,4.19-2.62l-.66.61.93-.39c.3-.15.59-.32.89-.48.59-.33,1.18-.67,1.77-1.01,1.18-.69,2.37-1.37,3.44-2.23,1.09-.82,2.19-1.64,3.25-2.48,1-.91,2-1.82,2.97-2.72,1.02-.85,1.87-1.85,2.77-2.76.45-.46.89-.91,1.33-1.35.45-.44.89-.87,1.28-1.34,1.59-1.84,3.32-3.41,4.79-4.94-.49-1.24,1.2-3.31,2.36-5.61.61-1.13,1.23-2.23,1.45-3.2.2-.98.11-1.76-.51-2.18.86-1.29,1.5-2.16,2.04-2.87.47-.72.85-1.27,1.24-1.9.75-1.27,1.72-2.84,2.8-7.2.03-.15.07-.39.07-.44-.01.03-.04.05-.08.06-.05-.06-.13-.13-.23-.22-.2-.18-.49-.42-.76-.73-.39-.44-.76-1.05-.85-1.65l1.41,1.24c-.12-.19-.24-.39-.35-.6-.05-.1-.13-.24-.16-.32-.01-.07-.02-.13-.03-.2-.02-.26.02-.53.12-.79.49.44.9.88,1.23,1.32.12.16.24.33.34.49.13-.13.3-.26.52-.39-.24-.09-.78-.68-.89-1.12.17-.09.38-.13.6-.15.11,0,.23,0,.34,0l.61.04c1.06.08,2.12.26,3.06.48,1.88.45,3.28,1.08,3.33,1.46l9.11-1.28c-.2.61-1.73.82-2.93,1.21,4.86-1.55.88,1.6,5.34.18-.6-.34.32-.9.42-1.21,2.22.92,7.27.92,11.01.54l-.72,1.04c6.75.27,14.24-.5,21.82-.48-2.72-.49-2.09-2.3.13-2.47l.89,1.6c1.44-.99-2.32-.6.62-1.82,2.83.18,1.9,1.82.28,2.34l3.44-.56c.2.48-.61.73-.82,1.34,1.41-.99,5.94,1.61,7.98-.12l.19.48c7.58.01,11.01-.54,17.19-.62.12-1.38,2.53-1.08,4.37-2.19,4.54.44,9.57,1.53,15.04,1.41,3.84-.69,1.12-1.17,2.85-1.99.28,1.26,5.74,1.14,2.91,2.05,6.56-.21,8.38-.25,16.67-1.27-.9-.51-1.91-.74-1.39-1.17,1.51-.21,3.43.53,3.21,1.13l-.4.13c9.31-1.89,21.49,3.67,28.91,1.04l-.42.13,7.69-1.37c3.54.22-2.12.95.5,1.73,8.29-2.1,13.11.3,19.94-1.1,5.29,3.71,18.76-.26,25.9,2.11l-.41-.87c1.84-.86,2.23.5,3.59.7-.19-.68-2-.79-.86-1.26l.56-.04.28-.02c.12,0,.08-.01.12-.02l.32-.06c.22-.04.44-.06.68-.09.36-.02.81-.1,1.1-.01.02.37.03.77.02,1.15,0,.22-.02.44,0,.65,0,.05-.03-.07-.02.06l.07.62.15,1.23.29,2.48.5,2.45c.35,1.64.61,3.31,1.15,4.91l.73,2.44c.24.81.47,1.64.81,2.42,2.28,6.42,5.8,12.48,10.29,17.64.55.63,1.03,1.13,1.53,1.45.5.32.96.52,1.38.65.85.26,1.58.24,2.3.28.72.04,1.43.17,2.25.7.88.48,1.87,1.35,3.2,2.99-.93-.02-1.88-.05-2.84-.1,4.97,2.89,10.07,5.51,15.41,7.61,1.35.48,2.67,1.06,4.04,1.46,1.38.37,2.77.74,4.14,1.11.35.09.69.19,1.04.26l1.05.16,2.11.3,1.05.14h.11s-.01,0-.01,0c0,0-.02,0-.03-.02-.02-.02.06,0,.08-.01.15,0,.3-.03.47-.06.23-.04.49-.09.78-.16l.48-.11c.12,0,.13.13.2.2-.19.04-.4.18-.57.27-.09.05-.15.08-.21.1-.09.04-.15.07-.21.07-.07.13-.08.18-.16.31-.08.12-.13.21-.16.29-.07.16-.06.25,0,.33.09.12.29.24.53.42.12-.05.26.53.4.74.14.26.29.41.43.41-.11,1.8-.87.42-1.36,1.53-.7,2.45,1.51,6.16.33,7.46-.19.22-.38-.69-.47-1.14.57,1.6-.15,7.45,1.22,5.92-.65,4.34.6,8.31-.2,11.78,1.52,2.26-.73,7.44,1.42,8.15-2.22-.31-1.79,7.62-.75,10.36-.67-.92-.7,2.39-1.63,1.31.03,3.13.44,6.01,1.59,5.46-2.66,5.78,2.14,11.61-1.27,14.86,1.19,9.31,2,17.93,2.52,26.31-2.22-.3-.22-9.26-2.55-8.9.91,7.95,2.82,12.53,2.28,20.41-.3,2.04-.96-1.16-1.34-1.85.46,3.97.41,7.81.39,11.54,0,1.86,0,3.7.08,5.51l.08,1.35.05.67.03.34c0,.09.02.09.03.15.09.33.2.69.35,1.1-.21-.09-.43-.46-.6-.72.04.26-.06.51,0,.73.05.21.21.44.69.68l-.18-.45-.1-.23c.48-.1.98.14,1.46.86.48.67.95,1.8,1.35,2.97.05.15.1.29.15.43.04.09,0,.1-.02.13l-.07.07c-.1.1-.19.2-.27.28-.16.18-.25.33-.18.45-.09-.74-.65-1.11-1.21-1.33-.57-.22-1.22-.29-1.8-.4-.53-.1-.98-.26-1.21-.57-.25-.31-.23-.88-.26-1.72-.11.09-.22.28-.31.53-.02.22-.02.52.04.85-1.43.03-2.01-.28-.61-1.28-5.34,1.39-3.17,2.14-7.88,3.31-.12-.47.78-.91,1.13-1.59-2.22,1.49-4.17,3.22-8.09,4.38.11-.37-.49-.54.64-1.03-1.6.76-2.99,1.67-4.3,2.55-.67.42-1.25.96-1.84,1.47l-1.74,1.52c-1.2.96-2.26,2.09-3.5,3.14-.61.53-1.28,1.02-1.97,1.56-.66.56-1.36,1.12-2.14,1.67.25-3.07-2.42,1.19-3.97.26l-2.44,3.49,1.79-.65c-.61.67-1.16,1.36-1.62,2.09-.43.75-.82,1.51-1.2,2.24-.39.73-.77,1.43-1.21,2.08-.42.66-.82,1.32-1.35,1.89.27-.88.46-1.82.82-2.67-.64.94-1.12,1.98-1.68,2.96l-.81,1.49c-.27.49-.54.99-.75,1.52.36-.53.81-1.01,1.24-1.49l1.29-1.44c-.54,1.79.02,1.98.34,2.22.16.12.26.24.15.57-.12.32-.46.83-1.05,1.82.12-.46-.26.31-.9,1.35-.64,1.03-1.54,2.33-2.31,3.01h0c-.03.91-.06,1.84-.23,2.81-.08.49-.23.98-.39,1.51-.14.53-.33,1.09-.61,1.68-.74.5-1.82-1.07-2.3-.75.26.53.28,1.31.18,2.21-.05.45-.12.94-.21,1.44-.05.51-.11,1.04-.16,1.58-.05.53-.1,1.07-.15,1.6-.02.26-.03.52-.05.77v.36s.01.2.01.2c.03.62.25,1.28.61,1.89-.33-.74-1.26-1.08-1.45-1.04.18.21.35.43.53.67.2.28.41.57.61.89-.44.92-.63.84-1.34.09-.08,1.33.06,1.33.81,1.94.13.09.23.15.32.24.07.07.2.24.16.31-.12.09-.7.07-1.91-.18.26-.1,0-.29.49-.48-.62-.08-1.18-.11-1.71-.12-.8-.01-1.56.03-2.35.1-1.14.08-2.26.15-3.38.23-2.26.15-4.49.24-6.7-.02-1.53-1.85,4.52-.45,2.77-2.01-7.46.33-15.44,2.21-22.66,1.78l1.34.2c-1,2.61-5.37-1.29-9.02-.06.89-.19,1.17-1.45.93-1.16-4.94-.42-10.1.64-17.59,1.46l.93-.67c-2.91-.6-7.67-.34-10.82-.65-.93.67-2.73.56-1.64,1.53-9.7-3.81-18.5,2.04-27.11-1.13,1.03,0,2.45-.59,1.63-.59l-7.33.62c.58,1.14.96.69,2.5,1.57-.93.67-3,1.2-4.81,1.2,3.3-.75-.03-1.82-1.45-2.46.24.35-.25.73-.13,1.09-3.83-2.02-.64,2.28-5.87.92l.28-.6c-1.96.3-3.76,1.09-5.87.92-.87-1.31,2.08-.61,2.22-1.69-2.96.08-5.85,2.49-8.53,1.18,1.26-.37,3.07-.37,4.33-.74-2.92-1.54-3.26-1.15-5.43-1.4l.21.03-5.02-.7,1.28.42c-3.71,3.42-7.55.63-12.55,2.87,4.86-2.12.8-1.23,1.17-2.72-1.28-.41-3.21-.88-2.66-1.3-2.36,1.2-3.94-.95-7.27.81-.15-.48-2.53-.05-1.99-1.25-3.07.38.73.83.47,1.43-4.73,1.64-11.12-1.99-17.93.26-5.87.92-6.95,2.54-12.4,3.35-1.84-.77,1.51-1.75,1.51-1.75-2.97-.71-5.2-.58-7.99-.03.57-.42-.02-.77-.87-1.31-2.24.13-1.5,1.75-4.46,1.04.51-.54,1.16-1.39,2.24-1.92-2.64.44-5.25,1.34-7.99,1.77-.73-.83,1.65-1.27,2.62-1.81-3.07.38-7.97.76-8.92,2.08l1.97.47c-1.12.06-.58-1.14.25-1.38,2.64-1.04,3.8.46,3.95.94l-1.95.31c2,2.81,7.83-.45,11.75-.29l-1.64,2.04,4.02-1.7c.86.53,1.44,1.67-.5,1.98,2.81,1.01,2.49-.73,4.91.4.27.18.15.27-.1.36l2.75-.61c-.54.43.46,1.44-1.23,1.15,4.93,1.18,7.95-1.53,9.81.02l-.41.13c6.84-.69.66-1.5,5.79-3.26l3.45,3.7.67-1.5c.71.05,2.1.17,1.84.77,2.63-1.03-.45-.65,1.08-1.62,3.4,1.37,9.37-.64,10.13,1.75,1.22-1.14-3.25-.88.38-1.67,1.03,2.57,4.19-.44,7.3.74-.95,1.33-3.89.62-.79,1.81,1.87-2.24,6.04.49,8.66.06.12-1.79,5.69-.75,10.09-1.34-.28.6,8.27.98,12.35,1.63l-.12.3c.79-1.8,5.01-1.46,8.08-1.84-.12,1.08-.67,1.51-2.34,1.99h2.89c.68-.59,1.58-.89,3.45-1.1l-.73,1.35c3.84-.07,7.73-1.59,12.68-.69.28-1.26-3.93-3.5,1.3-4.34.19.68.39,1.84-.98,2.12.45-.09,1.6-.57,2.5-.27l-2.09,1.14c2.25.5,1.18-.96,2.98-.85-.04.97,1.33.69,1.07,1.46-.46.09-1.57-.4-2.26-.02,2.03.17,4.48.75,5.29,1.48-.18-.55,0-1.31,1.49-1.43,3.84-.07,1.31,1.17,3.55,1.67.93-.67,3.38.02,3.44-1.43,1.12,0,1.33.68,1.77,1.08,1.99-.64,9.28-.18,7.04-1.73l-.51-.1c.1-.03.21-.03.32-.06h-.02.02c6.51-1.44,13.53.82,20,.2v.49c3.85-.55,8.58-.33,11.33-1.37,1.14,0,2.69.89,2.21,1.46,2.95-.36,3.28-.91,7.54-.11-2.97.85,1.02.75-3.04.62,3.83.42,4.7,1.2,8.82-.13-1.4,1.24,2.89,1.57,4.71,1.19l-2.69-.89c2.05-.18,3.84-.07,5.66.03l-.98,1.63c1.54.39,3.01.5,4.44.44.49-.02.98-.05,1.46-.07.58-.04,1.16-.08,1.73-.12,1.13-.09,2.21-.21,3.23-.34.63-.56,1.25-1.1,1.86-1.58.3-.24.61-.48.91-.7l.45-.32c.07-.06.16-.09.21-.17l.12-.26c.61-1.4,1.12-2.73,1.84-3.93.1-.97.22-1.89.5-2.84.07-.24.12-.46.24-.75.1-.27.21-.59.29-.67.18-.27.37-.54.59-.79-.42-1.02-.77-.1-1.15.87-.52,1.79-.77,3.14-1.36,1.65.05-.3.1-.6.16-.91.06-.28.18-.71.25-.94.15-.41.33-.81.51-1.19.38-.77.81-1.49,1.22-2.13.95-1.24,1.81-2.15,1.93-2.64.93-2.04.85-3.12.6-4.37-.11-.62-.22-1.25-.17-2.01.05-.76.41-1.57,1.06-2.6-.79.29-2.49.22-1.31-3.45,2.06-2.95,4.3-2.35,3.6-.31-.38.71-.74.95-.89.82-.09.26-.19.54-.29.79-.07.27-.1.52-.1.7,0,.37.2.49.76.05-.11-.22-.23-.45-.32-.66.7-.56,1.62-1.82,2.4-2.75.74-.96,1.51-1.46,1.57-.78,1.03-2.28-.15-1.43-1.49-.08.78-.76,1.46-1.43,2.02-2.11.59-.66,1.02-1.38,1.59-1.99.55-.62,1.1-1.26,1.72-1.92.31-.33.63-.66.99-1,.37-.32.8-.62,1.24-.93-.73.23-1.69.18-1.17-.29,2.66-1.9,2.95-2.62,3.09-3.18.11-.58-.06-1.1,1.68-2.57,1.28-.41,1.39.17,1.59.43.1.13.22.18.51,0,.31-.16.79-.53,1.64-1.26,2.61-.89,1.26,1.05.65,1.97.68-.74,1.44-1.32,2.21-1.77.8-.41,1.65-.64,2.44-.84.8-.19,1.55-.32,2.23-.45.71-.06,1.34-.13,1.87-.27-.56.39-1.14.73-1.68,1.14.98-.7,1.92-1,2.84-1.35l-1.48-.7c1.19-.22,2.13-.57,2.26-.1.45-.58.09-.96-.15-1.42-.23-.45-.37-1.06.72-1.87.89.07,2.07-.4,3.16-.73.54-.19,1.07-.25,1.51-.2.44.04.8.2,1,.56-1.3.07-1.9.19-2.12.4-.22.19-.08.38.09.58.34.41.77.9-1.23,1.56.74-.36,1.69-.71,2.91-.64.21.14-.11.34-.41.48,1.05.14,1.72.12,2.19,0,.24-.06.42-.14.58-.25.09-.05.11-.1.25-.17.17-.07.33-.15.48-.24.15-.08.29-.17.42-.26.11-.07.22-.14.34-.22.23-.15.46-.3.73-.46.55-.31,1.26-.59,2.43-.81.42-.43,1.03-.9,1.86-1.44-.14.57.41.68,1.09.43.67-.24,1.52-.77,1.9-1.25-1.11,1.01-1.6.96-1.55.49.02-.24.17-.57.42-.93.05-.1.15-.16.19-.29.04-.13.07-.27.11-.41.08-.27.16-.57.25-.88.82-1.09,1.36-1.92,1.64-2.54-.14-2.27-.66-3.21-.61-5.08l-.32,3.1c-.44-.67-.63-1.58-.74-2.75-.04-.51-.09-1.08-.14-1.71-.04-.53-.09-1.11-.15-1.73.68-.21.47,2.27.77,1.38-1.53-2.77,1.59-6.27.55-10.13.59-1.79,1.64-.17,2.04-1.75-1.13-4.33,1.2-4.69.26-9.25-1.17,1.31-.89,1.54-2.03-1.66l.83,7.49-1.7-4.81c-.02,2.26.74,4.77.54,6.12-.96-2.29-.66-2.05-1.64-.97,1.76-3.09-1.02-6.13.16-9.7l2.9.11c1.29-5.37-1.49-9.55-.76-16.53l-.5,2.24c-1.15-.94-.16-4.31-.63-6.57.97.21,1.32-1.2,1.93-2.17-.72.12.07-5.11-1.87-5.74l1.28-3.12c.52-5.63-2.76-6.43-2.43-11.85,1.05,1.63,1.74-.83,2.5,2.8,0-1.81.19-3.43-.48-3.46.61-1.06-1.31-5.01-.39-6.68-.43-.76-1.44-1.01-1.36-3.04.2-.22.48,0,.48,0-.48,0-.65-3.18-1.73-1.4,3.03-5.57-.22-15.57,2.38-20.42-.33-3.95-.64-8.7-.71-12.28.29.23.48.01.38.69.9-4.94-2.79-3.04-1.78-8.66.2-.34.36-.61.49-.78.13-.15.23-.18.32-.11.08.07.14.24.19.47.04.17.08.38.1.61.09.88.06,1.9.36,1,.47-.11.79-.34,1-.66.11-.16.19-.34.24-.54.06-.21.09-.37.11-.79.07-1.47-.13-3.32-.3-5.16-.6-.86-1.14-1.77-1.58-2.7-.25-1.13-1.28-1.43-1.84-2.2l1.03.44c-.78-.8-1.91-1.6-3.23-2.22-1.03.02-2.1.11-3.18.14-.28,0-.52.04-.84,0-.31-.02-.65-.03-.75-.01-.32.02-.65.04-.99.05-.67.03-1.37.04-2.08,0-.72,0-1.41-.23-2.11-.43,0,0,.27-.22.14-.46-3.32,1.03-9.07-.61-13.19-2.29,1.82-.49,2.08.28,1.94-1.2-.9-.33-1.02.17-1.36.6-.35.44-.9.73-2.7-.15-.38-.63-1.09-1.44-1.64-2.25-.51-.87-.85-1.75-.6-2.4l1.45,1.04,1.55.9c-.16-.61-.48-1.05-.89-1.4-.42-.34-.88-.68-1.4-.93-1.03-.53-2.2-.93-2.85-1.61l.68-.45c-4.13-3.36-5.67-2.03-9.38-6.78l-.08.86c-1.75-.74-1.98-1.49-2.12-2.23-.18-.74-.18-1.54-1.65-2.58.38-.63.76-1.24,1.15-1.85-.36-.4-.96-.9-1.5-1.59-.56-.69-1.19-1.49-1.87-2.33-.33-.43-.69-.86-1-1.33-.29-.48-.57-.96-.86-1.44-.56-.97-1.09-1.94-1.52-2.84,1.08.84,2.18,2.24,3.22,3.69,1.13,1.41,2.32,2.83,3.27,3.85-.44-.94-1.24-2.5-2.1-3.91-.71-1.47-1.5-2.8-2.15-3.17.48.74,1.29,1.57,1.3,2.46-.58-.46-1.13-1-1.66-1.62-.27-.31-.53-.64-.78-.98-.27-.34-.5-.71-.68-1.11-.4-.79-.77-1.66-1.11-2.59-.17-.47-.33-.95-.48-1.45-.13-.5-.2-1.03-.28-1.57.88.02,1.31-.58,1.49-1.51.04-.24.07-.49.08-.77,0-.16.02-.23,0-.48,0-.25-.05-.54-.05-.78-.02-.99-.04-2.1-.06-3.26-.61-1.32-1.31-2.73-1.98-4.12-1.31-.73-2.56-1.49-3.52-2.38-1.27-.22-2.34-.54-3.11-.99-.85.09-1.69.16-2.51.22-.57.06-1.01.11-1.53.15-.99.08-1.99.12-2.99.12-2,.01-4.02-.1-6.07-.25-4.11-.29-8.39-.73-13.03-.62,3.29,2.93-2.71.08-2.14,3.09-2.16.19-2.99.14-3.18-.05l-6.55-1.79c-1.55-.87,2.06-.66,1.86-1.34-4.73-.23-1.99-1.27-5.12-2.07.64,1.07-1.65,1.54-4.34,1.13l3.8,1.39c-6.61,1.6-5.72-2.52-12.38-.94l2.11-.95c-3.42.56-12.62-.02-15.97,2.39-.61-.35-1.4-1.17.1-1.39-8.17-.36-18.2,2.57-24.55,1.08l.62-.73c-1.52.21-2.65,1.38-4.56.64.1-.3.61-.73-.09-.78-.81.25-4.05,1.29-6.07.86l1.73-.83c-7.97-.96-12.24,2.01-18.92,2.52.02-2.16-6.26-2.87-9.39-3.22l.11-.31c-9.28-.27-15.77,1.79-24.37,2.64-5.34-2.35-18.08-.98-26.66-2.3,1.31.39-.21,1.69-1.74,1.9-2.01-.44-5.56,1.5-5.25-.48l.72.04c-1.52-1.95-5.65-1.43-8.88-1.48l-.53,2.6c-2.92-1.31-6.47-1.54-10.05-1.43-1.79.05-3.59.2-5.32.33-.44.03-.87.07-1.3.1-.69.03-1.38.06-2.06.09-1.34.06-2.63.1-3.86.12-1.38.93-2.71,1.65-3.89,2.32-.83,1.01-1.7,1.79-2.71,2.25-.21.45-.43.9-.7,1.4.05.81.08,1.61.1,2.42,0,.83.05,1.56-.06,2.52,0,.87.03,1.67.17,2.47l-1.35-.35c-1.38,4.79-2.1,7.13-4.51,12.77l-.35-1.55c-.78,1.5-.32,2.94-.05,4.36.31,1.42.67,2.95-.25,4.39-.78-.12-1.54-.25-2.3-.4-.94,1.22-1.87,2.47-3.07,3.47-1.16,1.03-2.24,2.13-3.5,3.02-1.22.94-2.31,1.99-3.52,2.91-1.17.97-2.19,2.14-3.28,3.28-.08-.31-.24-.91.55-1.49-1.26.68-3.7,1.96-5.78,2.84-1.02.47-1.85,1.08-2.39,1.52-.52.48-.66,1.01-.15,1.58-.39-.86-1.86-.33-3.65.6-.92.39-1.93.88-2.9,1.39-.49.24-.97.54-1.43.73-.47.2-.92.38-1.32.55l.27-1.43c-.98.86-1.61,1.46-2.25,1.94-.3.13-.63.3-.9.4-.27.1-.56.2-.85.3-.59.18-1.26.33-2.06.48-.45.33-1.11.72-1.95,1.15-1.14.31-1.48-.29.09-.77-.89.28-1.48.58-1.92.85-.2.15-.44.23-.52.43-.06.22-.1.43-.13.65-.15.86-.13,1.74-.89,3.33-.03.29-.07.67-.12,1.1l-.47-1.37c-.02-.31-.03-.62-.03-.93-.17.32-.32.61-.39.74,0,2.1.12,3.15.35,3.99.12.42.26.78.44,1.19.04.1.09.2.14.31.05.08.1.16.15.25.1.17.21.37.33.59.55,2.23-.35,6.74-1.58,7.27.75.48,1.76,2.43,1.41,4.52-.47.28-.76-.48-.9-.86-.93,5.94,1.59,8.84.25,12.92-.45.08-.68.35-.82.69.03-4.72.11-8.52.21-8.17-1.26,0-1.48,3.81-3.23.78.95,3.06,3.02,8.29,2.43,12.01-.12.18-.24.36-.44.49l-.14-.38c-.13.86,0,1.63.2,2.35-.21,1.19-.36,1.94-.38,3.08-1.04.44-.56,4.37-.61,6.27,1.38-.16,1.16,2.33,2.3,0-.1.3-.17-.36-.22-1.62-.04-.29-.06-.62-.14-.81.04.04.08.08.12.13-.04-1.25-.07-2.88-.09-4.73.7,1.5,1.29,3.07.53,5.17.89.98,1.8,2.05,2.23,2.65-1.93,2.6-2.97,7.62-4.16,8.32.77,5.81.51,13.68,3.11,17.33.33,1.65-.74,1.9-1.15,2.51-.26-.95-.22-2.09-.59-2.6.67,3.3.26,9.78,2.07,10.57-.82,4.16-1.67-2.34-1.37,3.38l-.55-.77c-2.9,11.24,4.63,18.28.91,30.75.23-.86.33-1.3.64-1.47-.29,2.5-.43,5.03-.48,7.57-.02,1.27-.03,2.55-.01,3.83.03,1.73.06,3.47.08,5.21l.79,1.92.38.96.19.48c.07.15.09.36.29.38,1.31.49,2.63.96,3.93,1.41,1.19.04,2.3.04,3.53.23l2.51.35c1.64.16,3.19.71,4.75,1.14,1.58.39,3.03,1.14,4.47,1.83,1.46.64,2.76,1.61,4.01,2.55,1.58,1,2.48,1.45,3.39,1.6.9.16,1.75.08,2.99.32-.04.55-.11,1.14-.18,1.7,1.36.31,2.76.64,4.19,1,2.54,1.42,3.84,3.74,4.93,6.23.29.61.6,1.22.94,1.81.3.63.62,1.26,1.01,1.86.39.61.84,1.2,1.39,1.77.57.56,1.09,1.21,1.81,1.79l.37-1.32c.3.58.74,1.28,1.22,2.01.24.37.49.74.74,1.12.22.38.42.78.61,1.15.75,1.49,1.23,2.69.61,2.73.27.16,1.36.32,1.2,1.48l-.69.37c1.12,1.78,2.35,3.58,3.24,5.55.36,2.47-.45,2.43-1.13,2.67-.35.12-.62.3-.81.87-.18.57-.22,1.53,0,3.21.43,1.21,1.01,2.96,1.69,4.33.67,1.36,1.35,2.35,1.58,1.85-.02-1.07.33-2.76,1.1-2.9l.55,2.48c1.16.21,2.34.82,3.4.57,1.07-.24,1.99-1.38,2.59-4.89l-.42-1.16-.53-1.14-1.06-2.23.85-1.71.7,3.97c.66-2.41-.42-3.76-1.4-5.17.48-.5.71-1.24.68-2.23-1.13-1.35-2.14-2.67-3.42-3.85.65-.84,2.41,1.42,1.78-1.73-1.71-1.7-1.17,2.63-3.03-.48.2-2.47,1.16-2.23-.78-4.25.37-.59.95-.25,1.65.61-.84-.94-1.6-2.32-2.36-3.54-.85-1.17-1.7-2.16-2.53-2.35-.03-.67-.33-1.42-.73-2.19-.44-.73-1.01-1.45-1.5-2.13-.98-1.35-1.69-2.52-.78-3.11-.43-.14-1.48-.64-2.58-1.3-1.12-.64-2.23-1.5-3.06-2.18,1.18.2,1.39,0,1.13-.54-.29-.51-1.1-1.29-1.98-2.13-1.7-1.75-3.96-3.43-2.68-4.23-.97,0-2.02-.34-3.15-.9-1.14-.53-2.43-1.15-3.73-1.88-.66-.35-1.31-.75-2-1.08-.7-.31-1.41-.62-2.11-.91-1.42-.55-2.77-1.13-4.14-1.24.34-.06,1.03-.23,1.41.07-2.68-1.24-3.26-2.18-4.95-3.28-.47.84-1.87,1.1-3.43,1.2-1.57.1-3.33.03-4.63.49-1.57-1.19-.98-1.67-.03-2.08.94-.41,2.23-.76,1.84-1.72-.07.78-1.72.9-3.21,1.03-.37.03-.74.06-1.05.11,0,.04-.02.09-.03.14-.02.05-.09.09-.13.13-.18.18-.34.4-.31.74-.29-.49-.37-.65-.36-.8-.12-.24-.14-.4.39-1.32-.89,1.13-1.21,1.21-1.45,1.18-.06,0-.12-.02-.19-.03-.02-.05,0-.14-.04-.19-.06-.11-.21-.16-.58-.12.24-.45.48-.74.69-.93.85-.78,1.41-.55.83-1.12.09,0,.19-.22.28-.29.09-.08.19-.1.28-.07.09.03.18.12.27.23.02.02.04.07.06.08h.06s.08.02.12.03c.31.04.52,0,.52,0ZM10.92,97.39h.03c.03.82.06,1.52.08,1.96-.02-.41-.05-.97-.11-1.96ZM10.9,89.4c-.05.97-.06,2.18-.05,3.47-.48.28-.97-.02-.94-.83.32.44.59-1.45,1-2.64ZM1.32,106.3c-.2-1.26.08-1.69.36-1.86.02.6.07,1.3.17,2.21.05.04.11.11.17.15-.26-.12-.51-.26-.69-.5Z"/>
            <path class="cls-8" d="M3.14,108.58c.03.18.09.28.1.52.12-.26.23-.5.31-.75-.15-.15-.3-.31-.43-.45,0,.23.01.47.02.68Z"/>
            <path class="cls-8" d="M219.22,253.07l.17.03c-.14-.05-.27-.11-.35-.2.11.07.11.11.18.17Z"/>
            <path class="cls-8" d="M66.15,14.52l-.33-.29c.09.14.18.28.28.41l.05-.11Z"/>
            <path class="cls-8" d="M175.22,248.33c-.08-.12-.25-.25-.58-.35.03.09.27.21.58.35Z"/>
            <path class="cls-8" d="M156.22,248.02l-2.69-.49c1.16.28,2.01.41,2.69.49Z"/>
            <path class="cls-8" d="M141.6,247.34c-.18.24-.24.42-.29.59.01,0,.02,0,.03,0l.26-.6Z"/>
            <path class="cls-8" d="M332.65,191.06c0-.07-.03-.13-.06-.19-.27-.43-.16-.16.06.19Z"/>
            <path class="cls-8" d="M286.76,230.77c.02-.4.04-.81.07-1.21.05-.4.14-.78.24-1.18-.7,1.1-1,2.08-.3,2.39Z"/>
            <path class="cls-8" d="M330.98,114.82s.01,0,.02,0v-.48l-.02.47Z"/>
            <path class="cls-8" d="M288.57,225.35c-.81,1.04-1.24,2.05-1.5,3.03.55-.92,1.22-1.97,1.5-3.03Z"/>
            <path class="cls-8" d="M78.27,246.71l-.7-.06c.01.09-.03.17-.08.22l.79-.17Z"/>
            <path class="cls-8" d="M77.48,246.88l-.78.16c.36,0,.67-.01.78-.16Z"/>
            <path class="cls-8" d="M75.05,247.39l1.65-.35c-.57,0-1.27-.05-1.65.35Z"/>
            <path class="cls-8" d="M97.61,247.35l.22-.5c-.12.1-.2.27-.22.5Z"/>
            <path class="cls-8" d="M103.49,247.21c-1.4-.11-3.52-1.07-5.47-.75l-.18.4c.92-.75,4.33,1.2,5.66.36Z"/>
            <path class="cls-8" d="M128.03,253.4l-4.93-.4c.86.53,1.99,1.25-.25,1.38,6.21,1.59-1.28-1.19,5.17-.98Z"/>
            <path class="cls-8" d="M143.3,254.17c-2.65.25.03.77-.11,1.08,1.68-.49,2.09-.61.11-1.08Z"/>
            <path class="cls-8" d="M253.69,254.18l-.27,1.26c2.04-.18.02-.49.27-1.26Z"/>
            <polygon class="cls-8" points="274.79 247.68 272.8 246.9 271.86 248.05 274.79 247.68"/>
            <path class="cls-8" d="M289.34,251.49l-.54,1c.56-.9,1.08-1.79,1.57-2.69l-.03-1.63v1.62c-.31.57-.65,1.13-1,1.7Z"/>
            <path class="cls-8" d="M343.12,93.35l-1.55.62c.28,1.38,2.02,1.67,1.55-.62Z"/>
            <path class="cls-8" d="M299.27,38.56c.13-1.15-.73-3.03-2.07-3.67.84,1.42,1.41,3.09,2.07,3.67Z"/>
            <polygon class="cls-8" points="80.31 1.84 81.92 1.32 78.88 1.75 80.31 1.84"/>
          </g>
        </g>
        <path class="cls-11" d="M285.18,7.6H60.01c0,29.21-23.9,53.12-53.12,53.12v137.53c29.21,0,53.12,23.9,53.12,53.12h225.17c0-29.21,23.9-53.12,53.12-53.12V60.72c-29.21,0-53.12-23.9-53.12-53.12Z"/>
        <g class="cls-10">
          <path class="cls-5" d="M285.18,7.54h-22.58c-17.94,0-35.89,0-53.83,0-21.68,0-43.35,0-65.03,0h-56.15c-6.14,0-12.27,0-18.41,0h-5.79c-.9,0-2.14-.23-3.02,0-.11.03-.26,0-.37,0,0,0,0,.03,0,.03-.1,22.05-14.22,42.27-34.95,49.87-5.82,2.13-11.97,3.19-18.16,3.22,0,0,0,.06,0,.06v135.44c0,.49-.18,1.4,0,1.86.02.06,0,.17,0,.24,0,0,0,.06,0,.06,21.64.09,41.54,13.66,49.47,33.83,2.41,6.14,3.62,12.67,3.65,19.26,0,0,0,.03,0,.03h22.58c17.94,0,35.89,0,53.83,0h145.38c.9,0,2.14.23,3.02,0,.11-.03.26,0,.37,0,0,0,0-.03,0-.03.1-22.1,14.28-42.34,35.07-49.91,5.78-2.11,11.89-3.15,18.05-3.18,0,0,0-.06,0-.06V62.81c0-.49.18-1.4,0-1.86-.02-.06,0-.17,0-.24,0,0,0-.06,0-.06-21.64-.09-41.54-13.66-49.47-33.83-2.41-6.14-3.62-12.67-3.65-19.26,0-.07,0,.04,0,.06.06,14.26,5.85,28.03,16.07,38,5.24,5.12,11.53,9.14,18.38,11.74,3.36,1.27,6.85,2.2,10.4,2.76,1.81.29,3.64.48,5.48.57.42.02,2.66-.13,2.79.08.35.53,0,2.57,0,3.18v7.53c0,8.03,0,16.06,0,24.1,0,21.11,0,42.21,0,63.32,0,8.53,0,17.05,0,25.58v8.67c0,1.42.26,3.14,0,4.54-.17.9-.03.47-1.4.51-3.66.1-7.31.57-10.86,1.42-7.17,1.71-13.96,4.95-19.82,9.42-11.68,8.91-19.37,22.52-20.78,37.16-.13,1.39-.21,2.78-.24,4.17,0,.19.07.84-.07.93-.12.08-.57,0-.71,0h-18.37c-17.11,0-34.22,0-51.33,0-21.5,0-43,0-64.5,0-19.16,0-38.31,0-57.47,0-10.45,0-20.9,0-31.34,0-.29,0-.78.09-1.05,0-.52-.18-.1.37-.34-.46-.19-.65-.04-1.66-.07-2.33-.04-.77-.1-1.54-.17-2.3-.19-1.96-.49-3.92-.9-5.85-.74-3.49-1.84-6.91-3.27-10.19-5.83-13.34-17.17-23.96-30.87-28.89-3.53-1.27-7.2-2.16-10.92-2.65-1.83-.24-3.67-.38-5.52-.43-.36,0-1.25.19-1.4-.06-.13-.21,0-.91,0-1.15v-20.8c0-20.45,0-40.9,0-61.35,0-16.44,0-32.87,0-49.31,0-1.28-.35-3.16,0-4.4.02-.09-.05-.26,0-.33.13-.21,1.92-.06,2.32-.08,3.78-.16,7.53-.73,11.19-1.7,14.03-3.71,26.16-13.29,33.13-26.01,3.5-6.39,5.66-13.49,6.29-20.75.07-.76.12-1.53.15-2.3.02-.51-.1-1.39.05-1.87.36-1.12-.16-.29.09-.45.13-.08.58,0,.73,0h9.97c15.13,0,30.26,0,45.39,0,21.01,0,42.02,0,63.02,0,20.3,0,40.6,0,60.9,0,13.19,0,26.38,0,39.57,0h5.5s0-.12,0-.12Z"/>
        </g>
      </g>
    </g>
  </g>
</svg>