<?xml version="1.0" encoding="UTF-8"?>
<svg id="Layer_1" data-name="Layer 1" xmlns="http://www.w3.org/2000/svg" viewBox="0 0 379.6 476.65">
  <defs>
    <style>
      .cls-1 {
        font-size: 36px;
      }

      .cls-2 {
        font-size: 48px;
      }

      .cls-3 {
        fill: #009245;
        stroke-width: 0px;
      }

      .cls-4 {
        font-family: Garamond-Bold, Garamond;
        font-weight: 700;
      }
    </style>
  </defs>
  <g>
    <path class="cls-3" d="M177.42,2.97s-32.74,144.22-96.39,159.09c70.93,17.84,70.93,7.43,70.93,7.43,0,0-47.29,96.64-78.2,96.64,40.01,29.74,47.29,11.89,47.29,11.89,0,0-23.64,99.62-63.65,99.62,47.29,11.89,105.48-113,98.21-115.97-7.27-2.97-27.28-5.95-27.28-5.95,14.55-19.33,69.11-111.51,69.11-111.51,0,0-49.1,2.97-40.01-8.92C166.5,123.41,179.24,0,179.24,0"/>
    <path class="cls-3" d="M195.99,53.53s33.37,144.22,98.27,159.09c-72.31,17.84-72.31,7.43-72.31,7.43,0,0,48.21,96.64,79.73,96.64-40.79,29.74-48.21,11.89-48.21,11.89,0,0,24.1,99.62,64.89,99.62-48.21,11.89-107.54-113-100.12-115.97,7.42-2.97,27.81-5.95,27.81-5.95-14.83-19.33-70.46-111.51-70.46-111.51,0,0,50.06,2.97,40.79-8.92s-22.25-135.3-22.25-135.3"/>
    <path class="cls-3" d="M168.45,218.67s16.58,71.65,48.82,79.04c-35.93,8.86-35.93,3.69-35.93,3.69,0,0,23.95,48.01,39.61,48.01-20.27,14.77-23.95,5.91-23.95,5.91,0,0,11.98,49.49,32.24,49.49-23.95,5.91-53.43-56.14-49.74-57.62,3.68-1.48,13.82-2.95,13.82-2.95-7.37-9.6-35-55.4-35-55.4,0,0,24.87,1.48,20.27-4.43-4.61-5.91-11.05-67.22-11.05-67.22"/>
  </g>
  <text class="cls-4" transform="translate(0 458.79)"><tspan class="cls-2" x="0" y="0">B</tspan><tspan class="cls-1" x="32.51" y="0">RITISH</tspan><tspan class="cls-2" x="160.39" y="0" xml:space="preserve"> C</tspan><tspan class="cls-1" x="204.9" y="0">OLUMBIA</tspan></text>
</svg>